<?xml version="1.0" encoding="UTF-8"?>
<svg width="100pt" height="100pt" version="1.1" viewBox="0 0 100 100" xmlns="http://www.w3.org/2000/svg">
 <g fill="#fb8500">
  <path d="m22.961 75.957h44.332v2h-44.332z"/>
  <path d="m69.461 75.957h7.1641v2h-7.1641z"/>
  <path d="m30.961 82.289h36.332v2h-36.332z"/>
  <path d="m66.168 28.418c-0.55469 0-1 0.44922-1 1v2.168c0 0.55078 0.44531 1 1 1 0.55469 0 1-0.44922 1-1v-2.168c0-0.55469-0.44922-1-1-1z"/>
  <path d="m69.055 33.195 1.5312-1.5312c0.39062-0.39062 0.39062-1.0234 0-1.4141-0.39063-0.39062-1.0234-0.39062-1.4141 0l-1.5312 1.5312c-0.39062 0.39062-0.39062 1.0234 0 1.4141 0.19531 0.19531 0.44922 0.29297 0.70703 0.29297 0.25781-0.003906 0.51172-0.097656 0.70703-0.29297z"/>
  <path d="m68.25 34.668c0 0.55469 0.44922 1 1 1h2.168c0.55469 0 1-0.44922 1-1 0-0.55469-0.44922-1-1-1h-2.168c-0.55469 0-1 0.44531-1 1z"/>
  <path d="m69.055 36.141c-0.39063-0.39062-1.0234-0.39062-1.4141 0s-0.39062 1.0234 0 1.4141l1.5312 1.5312c0.19531 0.19531 0.44922 0.29297 0.70703 0.29297 0.25781 0 0.51172-0.097656 0.70703-0.29297 0.39062-0.39063 0.39062-1.0234 0-1.4141z"/>
  <path d="m63.16 30.246c-0.39062-0.39062-1.0234-0.39062-1.4141 0s-0.39062 1.0234 0 1.4141l1.5312 1.5312c0.19531 0.19531 0.44922 0.29297 0.70703 0.29297s0.51172-0.097656 0.70703-0.29297c0.39062-0.39062 0.39062-1.0234 0-1.4141z"/>
  <path d="m83.125 52.168c0.55469 0 1-0.44531 1-1v-2.1641c0-0.55078-0.44531-1-1-1s-1 0.44922-1 1v2.1641c0 0.55469 0.44531 1 1 1z"/>
  <path d="m83.125 60.504c0.55469 0 1-0.44531 1-1v-2.1641c0-0.55469-0.44531-1-1-1s-1 0.44531-1 1v2.1641c0 0.55078 0.44531 1 1 1z"/>
  <path d="m85.305 53.07c0.25781 0 0.51172-0.097656 0.70703-0.29297l1.5312-1.5312c0.39062-0.39062 0.39062-1.0234 0-1.4141s-1.0234-0.39062-1.4141 0l-1.5312 1.5312c-0.39062 0.39062-0.39062 1.0234 0 1.4141 0.19531 0.19922 0.45312 0.29297 0.70703 0.29297z"/>
  <path d="m85.207 54.254c0 0.55469 0.44531 1 1 1h2.168c0.55469 0 1-0.44531 1-1 0-0.55469-0.44531-1-1-1h-2.168c-0.55078 0-1 0.44531-1 1z"/>
  <path d="m86.133 58.672c0.19531 0.19531 0.44922 0.29297 0.70703 0.29297 0.25781 0 0.51172-0.097656 0.70703-0.29297 0.39062-0.39062 0.39062-1.0234 0-1.4141l-1.5312-1.5312c-0.39062-0.39062-1.0234-0.39062-1.4141 0-0.39062 0.39063-0.39062 1.0234 0 1.4141z"/>
  <path d="m81.652 51.363-1.5312-1.5312c-0.39062-0.39062-1.0234-0.39062-1.4141 0s-0.39062 1.0234 0 1.4141l1.5312 1.5312c0.19531 0.19531 0.44922 0.29297 0.70703 0.29297 0.25781 0 0.51172-0.097656 0.70703-0.29297 0.39062-0.39062 0.39062-1.0234 0-1.4141z"/>
  <path d="m41.305 20.207c0-0.55078-0.44922-1-1-1-0.55078 0-1 0.44922-1 1v2.168c0 0.55078 0.44922 1 1 1 0.55078 0 1-0.44922 1-1z"/>
  <path d="m42.484 24.277c0.25781 0 0.51172-0.097656 0.70703-0.29297l1.5312-1.5312c0.39062-0.39062 0.39062-1.0234 0-1.4141-0.39062-0.39062-1.0234-0.39062-1.4141 0l-1.5312 1.5312c-0.39062 0.39063-0.39062 1.0234 0 1.4141 0.19531 0.19531 0.45312 0.29297 0.70703 0.29297z"/>
  <path d="m42.387 25.461c0 0.55469 0.44922 1 1 1h2.168c0.55469 0 1-0.44922 1-1 0-0.55469-0.44922-1-1-1h-2.168c-0.55078 0-1 0.44531-1 1z"/>
  <path d="m43.309 29.879c0.19531 0.19531 0.44922 0.29297 0.70703 0.29297s0.51172-0.097656 0.70703-0.29297c0.39062-0.39062 0.39062-1.0234 0-1.4141l-1.5312-1.5312c-0.39062-0.39062-1.0234-0.39062-1.4141 0s-0.39062 1.0234 0 1.4141z"/>
  <path d="m37.301 21.039c-0.39062-0.39062-1.0234-0.39062-1.4141 0-0.39062 0.39063-0.39062 1.0234 0 1.4141l1.5312 1.5312c0.19531 0.19531 0.44922 0.29297 0.70703 0.29297s0.51172-0.097656 0.70703-0.29297c0.39062-0.39062 0.39062-1.0234 0-1.4141z"/>
  <path d="m26.875 52.082c0-1.3555-1.1016-2.457-2.457-2.457s-2.457 1.1016-2.457 2.457 1.1016 2.457 2.457 2.457 2.457-1.1016 2.457-2.457zm-2.457 0.45703c-0.25391 0-0.45703-0.20312-0.45703-0.45703 0-0.25391 0.20312-0.45703 0.45703-0.45703 0.25391 0 0.45703 0.20312 0.45703 0.45703 0 0.25391-0.20312 0.45703-0.45703 0.45703z"/>
  <path d="m28.418 56.25c-1.9531 0-3.543 1.5898-3.543 3.543s1.5898 3.543 3.543 3.543 3.543-1.5898 3.543-3.543-1.5898-3.543-3.543-3.543zm0 5.0859c-0.85156 0-1.543-0.69141-1.543-1.543 0-0.85156 0.69141-1.543 1.543-1.543 0.85156 0 1.543 0.69141 1.543 1.543 0 0.85156-0.69141 1.543-1.543 1.543z"/>
  <path d="m21 29.172h2v5.4961h-2z"/>
  <path d="m21 36.25h2v2.1289h-2z"/>
  <path d="m81.938 63.254c0.39453 0.054688 0.78906 0.082032 1.1875 0.082032 4.918 0 8.918-4 8.918-8.918s-4-8.918-8.918-8.918c-4.6914 0-8.5391 3.6445-8.8828 8.25h-1.8594l7.9062-14.438-1.7539-0.96094-8.4297 15.398h-13.543v13.293c0 0.53516 0.078125 1.0547 0.21094 1.5469l-3.1875-1.9805v-15.41l7.6133-8.9688c1.4648 0.98047 3.1914 1.5195 4.9688 1.5195 4.918 0 8.918-4 8.918-8.918s-4-8.918-8.918-8.918c-4.5781 0-8.3594 3.4688-8.8555 7.918h-2.2812l6.3008-12.637-1.7891-0.89453-6.7461 13.531h-9.0117c3.1914-1.3594 5.4375-4.5273 5.4375-8.207 0-4.918-4-8.918-8.918-8.918-4.5781 0-8.3594 3.4688-8.8555 7.918h-6.1797l-5.125-13.805-6.3398-2.0234-0.60938 1.9062 5.4102 1.7266 4.5273 12.195h-5.7578v42.418c0 1.5352 0.58594 2.9375 1.5391 4h-5.2891v2h74.168v-2h-7.3945c0.95312-1.0625 1.5391-2.4648 1.5391-4zm1.1875-15.754c3.8125 0 6.918 3.1016 6.918 6.918 0 3.8125-3.1016 6.918-6.918 6.918-0.39844 0-0.79688-0.046876-1.1875-0.11328v-7.4727h-5.6953c0.33594-3.5 3.293-6.25 6.8828-6.25zm-3.1875 8.25v5.5859h-11.707l3.0586-5.5859zm-10.93 0-3.0586 5.5859h-7.3867v-5.5859zm-17.168-5.582h-2.1836l-5.2422-6.418h3.4375l-0.52344 1.0547 1.7891 0.89453 0.96875-1.9453h7.1992zm14.328-22.25c3.8125 0 6.918 3.1016 6.918 6.918 0 3.8125-3.1016 6.918-6.918 6.918-1.3008 0-2.5625-0.38281-3.6562-1.0625l2.7109-3.1914c-0.023437 0.082031-0.050781 0.16406-0.050781 0.25391v2.168c0 0.55078 0.44531 1 1 1s1-0.44922 1-1l-0.003906-2.1719c0-0.55078-0.44531-1-1-1-0.13672 0-0.26562 0.027344-0.38281 0.078125l2.5391-2.9922h-8.9961c0.48828-3.3438 3.3633-5.918 6.8398-5.918zm-2.1602 7.9141-5.0234 5.918h-7.9023l2.9492-5.918zm-15.16 5.918h-6.0703l-4.8359-5.918h13.855zm-8.543-23.043c3.8125 0 6.918 3.1016 6.918 6.918 0 3.4922-2.6055 6.3828-5.9727 6.8438v-7.8438h-7.7812c0.48438-3.3398 3.3594-5.918 6.8359-5.918zm-1.0547 7.918v7.207h-5.5234l5.5234 6.7617v1.1562h-7.625l-5.6133-15.125zm-15.375 0 5.6133 15.125h-10.113v-15.125zm-0.5 44.418c-2.207 0-4-1.793-4-4v-23.293h10.859l2.0781 5.6016 1.875-0.69531-1.8203-4.9023h6.8828v23.293c0 2.207-1.793 4-4 4zm16.336 0c0.95312-1.0625 1.5391-2.4648 1.5391-4v-24.004l6.9336 8.4805v15.09l-7.0469 4.4297zm5.1836 0 5.2852-3.3242 0.003906-15.551h1.4023v15.555l5.3438 3.3203zm17.668 0c-2.207 0-4-1.793-4-4v-3.707h6.2891l-1.7422 3.1836 1.7539 0.96094 2.2695-4.1445h12.805v3.707c0 2.207-1.793 4-4 4z"/>
  <path d="m60.125 56.434h2v3.3594h-2z"/>
  <path d="m44.855 39.367-1.6719 1.0977-1.7109-2.6016 1.6719-1.0977z"/>
 </g>
</svg>
