<?xml version="1.0" encoding="UTF-8"?>
<svg width="100pt" height="100pt" version="1.1" viewBox="0 0 100 100" xmlns="http://www.w3.org/2000/svg">
 <g fill="#fb8500">
  <path d="m80.91 11.039c-1.0664-1.1016-2.5039-1.707-4.0352-1.707h-53.75c-1.5352 0-2.9688 0.60547-4.0352 1.707-1.0703 1.1016-1.6328 2.5508-1.5898 4.0781 0.17969 6.8945 1.7773 67.434 1.9922 69.355l0.015624 0.17188c0.33594 3.582 2.5547 5.7578 30.488 5.7734 27.934-0.015625 30.152-2.1875 30.488-5.7734l0.015625-0.17188c0.21875-1.9219 1.8125-62.457 1.9961-69.352 0.046875-1.5312-0.51562-2.9805-1.5859-4.082zm-3.6523 73.066-0.023437 0.23438c-0.12109 1.2773-4.9414 2.8008-27.234 2.8125-22.297-0.011719-27.117-1.5352-27.238-2.8125l-0.023438-0.22656c-0.03125-0.30859-0.09375-1.9688-0.17969-4.5703 3.6406 1.2969 11.27 2.0234 27.438 2.0312 16.168-0.007813 23.793-0.73438 27.438-2.0547-0.082032 2.6133-0.14453 4.2812-0.17578 4.5859zm0.3125-8.7656-0.011718 0.089844c-0.13672 1.3086-5.0234 2.8672-27.559 2.8789-22.535-0.011719-27.426-1.5703-27.559-2.8789l-0.011718-0.097657c-0.46484-15.266-1.2969-46.301-1.6641-60.305-0.019531-0.64453 0.21875-1.2539 0.66797-1.7148 0.44922-0.46094 1.0508-0.71484 1.6914-0.71484h53.75c0.64453 0 1.2461 0.25391 1.6914 0.71484 0.44922 0.46094 0.68359 1.0703 0.66797 1.7188-0.36719 14.004-1.2031 45.051-1.6641 60.309z"/>
  <path d="m54.984 48.941c-7.3281-0.53906-9.9922 2.5117-16.652 3.25-5.5 0.60938-11.805-2.6953-14.434-3.8203 0.25391 9.2656 0.50781 18.281 0.69531 24.488l0.011719 0.089844c0.125 1.2148 4.6328 2.6641 25.418 2.6758 20.781-0.011719 25.293-1.4609 25.418-2.6758l0.007813-0.085938c0.17969-5.918 0.41797-14.395 0.66016-23.207-1.3633 1.0156-3.1406 2.2109-5.3555 2.625-5.7773 1.0898-8.4414-2.8008-15.77-3.3398zm-6.4414 12.523 4.4062-6.1133c0.066406-0.09375 0.16406-0.16016 0.27344-0.1875l7.0781-1.7773c0.4375-0.10938 0.77344 0.38281 0.51172 0.75l-4.6328 6.4961c-0.070313 0.10156-0.17969 0.16797-0.29688 0.19141l-6.8555 1.3945c-0.42578 0.09375-0.74219-0.39453-0.48438-0.75391zm11.602 8.3711-6.1562 0.78125c-0.25781 0.039062-0.52734-0.09375-0.67969-0.33594l-3.9141-6.3555c-0.25-0.40625-0.054687-0.91797 0.37891-0.98828l5.8125-1.3555c0.25781-0.042969 0.52734 0.085938 0.67969 0.32422 0.79297 1.2617 3.1992 5.1992 4.2656 6.9414 0.25391 0.41016 0.050781 0.91797-0.38672 0.98828zm6.0664-7.3477-3.6719 5.8477c-0.33984 0.47656-1.0547 0.45703-1.3633-0.042969-1.1133-1.7891-3.3945-5.4688-4.1719-6.7578-0.17188-0.28125-0.15234-0.63672 0.039063-0.90234l3.9375-5.4336c0.34375-0.47266 1.0547-0.44531 1.3633 0.050781l3.8984 6.3281c0.17187 0.28516 0.16016 0.64062-0.03125 0.91016z"/>
  <path d="m43.484 39.082c0.0625 0.09375 0.16016 0.16016 0.26953 0.18359l7.1602 1.6367c0.40234 0.09375 0.70313-0.36719 0.45703-0.70312l-4.0195-5.3867c-0.0625-0.085938-0.15234-0.14453-0.25781-0.16797l-6.7578-1.5781c-0.39453-0.09375-0.69922 0.34766-0.47266 0.68359z"/>
  <path d="m44.059 39.996c-0.29688-0.070313-0.60156 0.042968-0.78125 0.28516-0.81641 1.1172-3.1367 4.3594-4.2656 5.9375-0.3125 0.4375-0.078125 1.0547 0.44922 1.1758l6.2734 1.0469c0.29688 0.066406 0.60156-0.050781 0.78125-0.29688l3.9961-5.5586c0.3125-0.4375 0.085937-1.0508-0.4375-1.1758z"/>
  <path d="m37.34 45.891c0.21484 0.34766 0.71875 0.33984 0.97656-0.019531 1.1055-1.5234 3.5977-4.9648 4.3867-6.0859 0.15234-0.21484 0.16406-0.48828 0.035156-0.69141l-3.2109-4.4609c-0.21484-0.34375-0.71875-0.32812-0.97656 0.027344l-4.0156 5.5781c-0.15234 0.21484-0.17188 0.48828-0.042968 0.69531z"/>
 </g>
</svg>
