<?xml version="1.0" encoding="UTF-8"?>
<svg width="100pt" height="100pt" version="1.1" viewBox="0 0 100 100" xmlns="http://www.w3.org/2000/svg">
 <path d="m74.426 11.719v-1.5625h-10.68l-6.3945 17.176h-11.375c-0.30469-3.9805-2.8945-7.418-6.6406-8.8047-3.7422-1.3867-7.9492-0.46484-10.77 2.3555-2.8242 2.8242-3.7422 7.0312-2.3555 10.773 1.3828 3.7422 4.8242 6.3359 8.8008 6.6367v11.34c0.007812 3.8477 1.3711 7.5703 3.8477 10.516 2.4766 2.9414 5.9141 4.918 9.7031 5.5781v18.836h-8.5586c-1.2969 0-2.3438 1.0469-2.3438 2.3438v2.9375h27.414v-2.9375c-0.003907-1.2969-1.0508-2.3438-2.3438-2.3438h-8.5625v-18.836c3.7891-0.66016 7.2266-2.6367 9.7031-5.5781 2.4766-2.9453 3.8398-6.668 3.8477-10.516v-22.301h-8.6992l5.8164-15.613zm-47.289 16.395c0-4.6289 3.6406-8.4414 8.2656-8.6484 4.625-0.21094 8.5938 3.2578 9.0117 7.8672h-1.8945c-0.29297-2.5898-2.043-4.7812-4.5039-5.6406-2.4609-0.86328-5.1953-0.23828-7.0352 1.6055-1.8438 1.8438-2.4688 4.5781-1.6094 7.0391 0.85938 2.457 3.0547 4.207 5.6406 4.5v1.8945c-4.457-0.40625-7.8711-4.1406-7.875-8.6172zm7.8789 5.1602h-0.003906c-2.2617-0.34375-4.0352-2.1172-4.3789-4.3789h3.5195l-1.2969 1.2969 1.1055 1.1055 1.0508-1.0508zm0-7.0469-1.2656-1.2656-1.1055 1.1055 1.2656 1.2656h-3.2773c0.34375-2.2617 2.1172-4.0391 4.3789-4.3828zm2.9492-1.1445-1.3867 1.3867-0.003906-3.5195c2.2656 0.34375 4.0391 2.1211 4.3828 4.3828h-3.0312l1.1445-1.1445zm25.547 61.824v1.375h-24.289v-1.375c0-0.43359 0.34766-0.78125 0.78125-0.78125h22.727c0.42969 0 0.77734 0.34766 0.78125 0.78125zm-10.906-2.3438h-2.4805v-18.641c0.41016 0.03125 0.82031 0.0625 1.2422 0.0625 0.41797 0 0.82812-0.03125 1.2383-0.0625zm13.551-49.977c-3.5312-0.80078-7.7188-0.28125-12.137 0.28125-5.3203 0.67578-11.332 1.4258-17.441 0.078124l-0.003906-6.0508h29.582zm-7.4766 11.723h1.5703v1.5625l-1.5703-0.003906zm-5.7461 3.6328-1.5664-0.003906v-1.5625h1.5703zm-7.6992 3.418h1.5703v1.5625h-1.5703zm-4.2031-4.9844h1.5703v1.5625h-1.5703zm11.57 8.7891h1.5703v1.5625h-1.5703zm8.4375-3.8047h1.5703v1.5625h-1.5703zm-12.09-11.637h1.5703v1.5625h-1.5742zm10.516-1.0742h-1.5703v-1.5625h1.5703zm-16.988 2.6367h-1.5703v-1.5625h1.5703z" fill="#fb8500"/>
</svg>
