<?xml version="1.0" encoding="UTF-8"?>
<svg width="100pt" height="100pt" version="1.1" viewBox="0 0 100 100" xmlns="http://www.w3.org/2000/svg">
 <g fill="#fb8500">
  <path d="m69.438 13.516c-0.14062-0.19531-0.35938-0.31641-0.59766-0.33594-0.097656-0.003907-7.3867-0.47266-11.348 4.4688 0.29687-1.4414 0.77344-2.9648 1.4062-3.668 1.7305-0.039063 8.4297-0.77734 9.2188-9.8125 0.019531-0.23828-0.066407-0.47656-0.23438-0.64453-0.16797-0.17188-0.40625-0.25781-0.64453-0.23828-0.097656 0.007813-9.5312 0.89062-9.5 9.5547-1.668 1.8047-2.125 6.1211-2.1719 6.6289l-0.11328 1.0469c-0.78125-0.41016-1.6992-0.75781-2.6836-1.0469-0.75781-3.6055-3.3906-8.582-11.965-10.023-0.23828-0.039062-0.48047 0.027344-0.66406 0.18359s-0.28906 0.38281-0.28906 0.625c0 0.078125 0.0625 4.7188 2.625 8.6094-5.1992 0.77344-8.7383 3.082-8.7773 5.832 0 0.003907-0.003907 0.007813-0.003907 0.011719l-2.7773 61.141c-0.058594 1.2656 0.58984 2.4453 1.6914 3.0742l12.176 6.9414c0.91406 0.51953 1.9336 0.78125 2.9531 0.78125 1.0391 0 2.0781-0.26953 3-0.80859l12.312-7.1641c1.1328-0.66016 1.7812-1.9297 1.6562-3.2305l-5.9375-60.781c0-0.015625-0.011719-0.023437-0.011719-0.039062 3.4023-0.26172 8.7305-2.0742 10.809-10.434 0.058594-0.23047 0.011719-0.47656-0.12891-0.67188zm-10.066-1.1797v-0.019532c0.40234-0.69922 1.125-1.8203 2.2148-3.0859 0.23047-0.19922 1.3008-0.98047 3.7227-0.83203-1.6602 3.1953-4.5547 3.8281-5.9375 3.9375zm6.3047-4.7305c-1.0977-0.097657-1.9688-0.023438-2.6562 0.125 0.93359-0.89453 2.0352-1.793 3.332-2.6055-0.15234 0.94922-0.38672 1.7656-0.67578 2.4805zm-1.7734-1.7461c-1.8633 1.4883-3.2109 3.0586-4.125 4.3242 0.76953-2.2734 2.5039-3.582 4.125-4.3242zm2.8438 11.402c-1.4961-0.19141-2.8086-0.11328-3.8203 0.039062 1.3438-0.87109 2.9297-1.7109 4.7656-2.4492-0.27344 0.89453-0.59375 1.6953-0.94531 2.4102zm-1.7734 2.6797c-1.9883-0.60156-3.8672-0.5-5.1094-0.30859 0.39844-0.35547 0.84375-0.72266 1.3164-1.0898 0.44922-0.15625 2.4766-0.78125 5.1562-0.50391-0.42188 0.73438-0.87891 1.3633-1.3633 1.9023zm-20.805-1.4961c1.6523 0.25781 4.4727 0.98438 6.543 3.0195 0.13672 0.28906 0.25781 0.58984 0.38281 0.89062-2.957-0.37891-5.2734-1.6914-6.9258-3.9102zm-2.6172-7.2031h0.007813c1.2266 0.78125 3.3281 2.3047 5.3945 4.6133-1.9922-1.1211-3.8125-1.4492-4.793-1.5391-0.36328-1.2227-0.53125-2.3281-0.60938-3.0742zm7.2578 6.9609c0.32031 0.45703 0.62891 0.9375 0.92578 1.4375-2.3398-1.5391-4.9453-1.9805-6.1875-2.1055-0.23828-0.39844-0.46094-0.82031-0.66797-1.2656-0.16797-0.36719-0.3125-0.73438-0.44141-1.0977 1.3828 0.18359 3.9648 0.82812 6.3711 3.0312zm-11.758 10.75c2.2734 1.1914 5.5156 1.9297 9.1797 1.9297 3.0625 0 5.832-0.51172 7.9844-1.375 0.050781 0.41797 0.085937 0.84766 0.074218 1.2969-1.5078 1.1328-4.4102 2.0352-8.0625 2.0352-5.4219 0-9.1992-1.9844-9.1992-3.7617 0.007812-0.039063 0.019531-0.082031 0.023437-0.125zm16.879-0.86719c-1.9219 0.8125-4.5625 1.3594-7.6953 1.3594-3.5938 0-6.5391-0.71484-8.4922-1.7305 1.332-1.2969 4.457-2.3984 8.4922-2.3984 3.0703 0 5.6094 0.63672 7.2383 1.5117 0.17188 0.38672 0.32422 0.80859 0.45703 1.2578zm-16.984 3.5586c1.8047 1.5859 5.2461 2.6367 9.2891 2.6367 3.1758 0 5.9727-0.65234 7.9062-1.6953l-0.83203 7.6797c-0.046875 0.44922 0.27344 0.85156 0.72266 0.89844 0.03125 0.003907 0.058594 0.003907 0.089844 0.003907 0.41016 0 0.76562-0.30859 0.80859-0.72656l0.83203-7.6641 4.1758 46.664c0.125 1.3828-0.64453 2.6992-1.9102 3.2695l-8.4648 3.832c-1.6445 0.74609-3.5078 0.6875-5.1055-0.15625l-7.4961-3.9609c-1.1016-0.58203-1.7852-1.7617-1.7383-3.0078zm19.492-5.1289 0.20703-1.9102c0.20703 0.019531 0.44141 0.035156 0.70312 0.046875-0.003906 0.027344-0.015625 0.050781-0.015625 0.082031 0 0.59766-0.31641 1.207-0.89453 1.7812zm0.41797-3.5117c0.003906-0.015625 0.007812-0.027344 0.011719-0.042968 0.39453-0.56641 1.0156-1.3555 1.8867-2.2539 0.53516-0.15625 2.9219-0.75391 5.5625-0.09375-2.7539 2.5391-6.0117 2.5469-7.4609 2.3906zm8.3516-7.9453c-3.75 1.8594-6.1992 4.0625-7.6953 5.7578 1.5938-3.832 5.0352-5.2539 7.6953-5.7578zm-9.9258 7.0195-0.41797 3.8516c-0.65234-1.3984-1.4336-2.375-1.8438-2.8359 0.03125-0.39062 0.0625-1.125-0.019531-2.0547 0.87109 0.29297 1.6367 0.64453 2.2812 1.0391zm-3.8867-1.0625c-0.55078-1.1523-1.1797-2.207-1.8477-3.1758-0.019531-0.058594-0.050781-0.11719-0.10156-0.16406-0.011718-0.007812-0.019531-0.015625-0.03125-0.027343-1.8008-2.5547-3.8594-4.4609-5.5117-5.7422 5.9062 2.1289 7.25 6.4805 7.4922 9.1094zm-7.9141-0.83984c1.7539 2.0078 4.3594 3.5977 8.2188 3.8867 0.11328 0.12109 0.32422 0.36328 0.58984 0.71875-1.707-0.57031-3.7852-0.90234-6.0508-0.90234-4.3945 0-8.082 1.2422-9.7227 3.0625-0.88672-0.69141-1.3789-1.457-1.3789-2.207-0.003907-2.0938 3.5586-4.0156 8.3438-4.5586zm18.848 67.25-12.312 7.1641c-1.3906 0.80859-3.1211 0.81641-4.5195 0.019531l-12.176-6.9414c-0.62891-0.35938-1-1.0312-0.96875-1.7578l2.6562-58.41c0.22656 0.22656 0.47656 0.44922 0.75781 0.65625-0.10156 0.28516-0.16016 0.57812-0.16406 0.87891 0 0.003906-0.003906 0.007813-0.003906 0.015625l-1.8125 50.312c-0.066406 1.793 0.91797 3.4922 2.5078 4.332l7.4961 3.9609c1.0625 0.5625 2.2188 0.84375 3.3789 0.84375 1.0156 0 2.0312-0.21484 2.9883-0.64844l8.4648-3.832c1.8203-0.82422 2.9258-2.7188 2.75-4.7109l-4.5039-50.297c0-0.007813-0.003907-0.011719-0.003907-0.019531-0.007812-0.28516-0.066406-0.5625-0.16016-0.83594 0.33594-0.25 0.625-0.51562 0.88672-0.78906l5.6875 58.207c0.070312 0.75-0.30078 1.4766-0.94922 1.8516z"/>
  <path d="m51.816 49.152c0.61719 0 1.1211-0.50391 1.1211-1.1211s-0.50391-1.1211-1.1211-1.1211c-0.61719 0-1.1211 0.50391-1.1211 1.1211s0.50391 1.1211 1.1211 1.1211zm0-1.4258c0.16797 0 0.30469 0.13672 0.30469 0.30469s-0.13672 0.30469-0.30469 0.30469c-0.16797 0-0.30469-0.13672-0.30469-0.30469s0.13672-0.30469 0.30469-0.30469z"/>
  <path d="m41.414 61.449c0.61719 0 1.1211-0.50391 1.1211-1.1211s-0.50391-1.1211-1.1211-1.1211c-0.61719 0-1.1211 0.50391-1.1211 1.1211 0.003906 0.61719 0.50391 1.1211 1.1211 1.1211zm0-1.4258c0.16797 0 0.30469 0.13672 0.30469 0.30469s-0.13672 0.30469-0.30469 0.30469c-0.16797 0-0.30469-0.13672-0.30469-0.30469s0.13672-0.30469 0.30469-0.30469z"/>
  <path d="m52.523 69.98c0 0.61719 0.50391 1.1211 1.1211 1.1211 0.61719 0 1.1211-0.50391 1.1211-1.1211 0-0.61719-0.50391-1.1211-1.1211-1.1211-0.62109 0-1.1211 0.50391-1.1211 1.1211zm1.1211-0.30469c0.16797 0 0.30469 0.13672 0.30469 0.30469s-0.13672 0.30469-0.30469 0.30469-0.30469-0.13672-0.30469-0.30469c-0.003906-0.16797 0.13672-0.30469 0.30469-0.30469z"/>
  <path d="m45.293 81.031c0.61719 0 1.1211-0.50391 1.1211-1.1211 0-0.61719-0.50391-1.1211-1.1211-1.1211-0.61719 0-1.1211 0.50391-1.1211 1.1211 0 0.62109 0.5 1.1211 1.1211 1.1211zm0-1.4258c0.16797 0 0.30469 0.13672 0.30469 0.30469 0 0.16797-0.13672 0.30469-0.30469 0.30469s-0.30469-0.13672-0.30469-0.30469c-0.003906-0.16797 0.13672-0.30469 0.30469-0.30469z"/>
  <path d="m60.301 86.801-0.81641 0.44531c-0.19531 0.10938-0.26953 0.35547-0.16016 0.55469 0.074219 0.13672 0.21484 0.21094 0.35938 0.21094 0.066406 0 0.13281-0.015625 0.19531-0.050781l0.81641-0.44531c0.19531-0.10938 0.26953-0.35547 0.16016-0.55469-0.10938-0.19922-0.35547-0.26953-0.55469-0.16016z"/>
  <path d="m57.809 88.168-7.7266 4.2344c-0.19922 0.10938-0.26953 0.35547-0.16016 0.55469 0.074219 0.13672 0.21484 0.21094 0.35938 0.21094 0.066406 0 0.13281-0.015625 0.19531-0.050781l7.7266-4.2344c0.19922-0.10937 0.26953-0.35547 0.16016-0.55469-0.10938-0.19531-0.35938-0.26953-0.55469-0.16016z"/>
 </g>
</svg>
