<?xml version="1.0" encoding="UTF-8"?>
<svg width="100pt" height="100pt" version="1.1" viewBox="0 0 100 100" xmlns="http://www.w3.org/2000/svg">
 <path d="m79.629 20.688h-11.449l4.8633-6.0938c0.61719 0.30469 1.3086 0.47656 2.043 0.47656 2.543 0 4.6055-2.0625 4.6055-4.6055 0-2.543-2.0625-4.6055-4.6055-4.6055-2.543 0-4.6055 2.0625-4.6055 4.6055 0 1.1016 0.39062 2.1172 1.0352 2.9102l-5.832 7.3125h-45.379l28.684 35.973v35.531h-15.145v1.9531h32.238v-1.9531h-15.145v-35.527zm-21.754 20.148h-3.0938v-1.9531h3.0938zm8.75-18.195h8.9492l-9.8594 12.363c-2.4531-0.44141-3.9141-2.0078-5.457-3.6562-0.10156-0.10938-0.20703-0.22266-0.3125-0.33594zm-23.086 8.7031c-1.8984 2.0312-3.5352 3.7852-6.9336 3.7852-0.96094 0-1.8242-0.14844-2.6367-0.44531l-9.6016-12.043h39.766l-5.5664 6.9805c-1.5977-1.457-3.5898-2.6797-6.6602-2.6797-4.2539 0-6.4414 2.3398-8.3672 4.4023zm5 12.297h-3.0938v-1.9531h3.0938zm-0.027343-7.1641v-1.9531h3.0938v1.9531z" fill="#283618"/>
</svg>
