<?xml version="1.0" encoding="UTF-8"?>
<svg width="100pt" height="100pt" version="1.1" viewBox="0 0 100 100" xmlns="http://www.w3.org/2000/svg">
 <path d="m27.812 13.809-2.3242-3.2734c-0.32031-0.44922-0.94531-0.55859-1.3945-0.23438-0.44922 0.32031-0.55469 0.94141-0.23438 1.3945l2.2969 3.2344c-0.79297 0.83203-1.2852 1.9531-1.2852 3.1914 0 2.5625 2.082 4.6445 4.6445 4.6445 0.54297 0 1.0586-0.10938 1.543-0.28516l1.7656 2.4922h-0.98438c-0.42969 0-0.80859 0.27344-0.94531 0.67969-0.17578 0.51172-4.1797 12.648 1.7148 20.859 3.2734 4.5625 8.9219 6.9375 16.777 7.082v34.371c0 0.035156 0.015625 0.066406 0.019531 0.10547h-7.1406c-0.55469 0-1 0.44531-1 1 0 0.55469 0.44531 1 1 1h16.238c0.55469 0 1-0.44531 1-1 0-0.55469-0.44531-1-1-1h-7.1406c0.003907-0.035156 0.019531-0.066406 0.019531-0.10547v-34.371c7.8594-0.14453 13.508-2.5195 16.781-7.082 5.8906-8.2148 1.8867-20.348 1.7148-20.859-0.13672-0.40625-0.51953-0.67969-0.94531-0.67969h-33.66l-2.5117-3.543c0.85938-0.84375 1.3945-2.0156 1.3945-3.3086 0-2.5625-2.082-4.6445-4.6445-4.6445-0.60156 0-1.1719 0.125-1.6992 0.33203zm4.7695 13.164h1.6602l5.8516 8.2461c-0.41797 0.015625-0.83984 0.027344-1.2969 0.027344-3.3516 0-5.5508-0.40234-7.3516-0.88281 0.10938-3.3086 0.78906-6.1445 1.1367-7.3906zm33.949 18.383c-2.9805 4.1484-8.332 6.2539-15.906 6.2539-0.050781 0-0.10156 0.011719-0.15234 0.019531-0.03125-0.003906-0.058594-0.019531-0.09375-0.019531-0.03125 0-0.0625 0.015625-0.09375 0.019531-0.050781-0.007812-0.097656-0.019531-0.15234-0.019531-7.5703 0-12.926-2.1055-15.906-6.2539-1.9219-2.6719-2.6367-5.8984-2.7773-8.9297 1.8008 0.44531 4.0898 0.82031 7.3398 0.82031 1.168 0 2.2031-0.050782 3.1523-0.13672h0.007813c3.1562-0.27734 5.2812-0.94922 7.3398-1.6094 2.6484-0.84766 5.1523-1.6484 9.8906-1.6484 4.7461 0 7.25 0.80469 9.8984 1.6523l0.24609 0.078125c-0.03125 3.2656-0.69141 6.8477-2.793 9.7734zm1.6562-18.383c0.31641 1.1328 0.91016 3.5742 1.0977 6.4922-2.5586-0.81641-5.2969-1.6172-10.098-1.6172-5.0508 0-7.8203 0.88672-10.5 1.7461-1.875 0.60156-3.6914 1.1719-6.2617 1.457l-5.7305-8.0781zm-36.035-8.8516c0 1.457-1.1875 2.6445-2.6445 2.6445-1.457 0-2.6445-1.1875-2.6445-2.6445 0-1.457 1.1875-2.6445 2.6445-2.6445 1.4609 0 2.6445 1.1875 2.6445 2.6445z" fill="#fb8500"/>
</svg>
