<?xml version="1.0" encoding="UTF-8"?>
<svg width="100pt" height="100pt" version="1.1" viewBox="0 0 100 100" xmlns="http://www.w3.org/2000/svg">
 <g fill="#fb8500">
  <path d="m49.352 36.34 2.5508 0.24609c0.046875-0.72656 0.12109-1.332 0.11719-1.9453-0.007812-1.9219-0.050781-3.8477-0.0625-5.7695-0.03125-4.8438-0.13281-9.6953-0.050781-14.531 0.046875-2.7188 0.46094-5.4102 0.59375-8.1289 0.066406-1.3789-0.12109-2.7812-0.20703-4.3828h4.0352c-0.21094 4.3086-0.45312 8.4336-0.60156 12.566-0.19141 5.2578-0.28906 10.523-0.46484 15.785-0.054688 1.6875-0.17969 3.375-0.35156 5.0469v0.003907c-0.14062 0.35547-0.0625 0.76172 0.19531 1.043 0.25781 0.28125 0.65625 0.38672 1.0234 0.27734 2.4805-0.050781 4.9688-0.011719 7.4531-0.011719 0.14844 0 0.29688-0.003906 0.44531 0.003907 2.4258 0.089843 2.7461 0.42188 2.6484 2.75-0.0625 1.5586-0.17188 3.1133-0.18359 4.6758-0.023438 4.3164-0.023438 8.6328 0 12.953 0.019531 3.7539 0.125 7.5117 0.10547 11.262-0.019531 3.7227-0.26172 7.4336-0.18359 11.156 0.070313 3.3984 0.5 6.8086 0.64844 10.215 0.097656 2.2422 0.003906 4.4883-0.085938 6.7227-0.11719 0.38281-0.42969 0.67969-0.81641 0.77734-1.9062 0.30078-3.8203 0.57812-5.75 0.73047-2.6367 0.26172-5.2812 0.38672-7.9297 0.37109-2.6484-0.074219-5.3047-0.51562-7.957-0.79297-0.37109-0.039062-0.74219-0.027343-1.1133-0.0625v0.003907c-0.57422 0.03125-1.1328-0.17188-1.5547-0.5625-0.42188-0.38672-0.67188-0.92969-0.68359-1.5039-0.40625-2.9375-0.82031-5.875-1.1172-8.8203-0.3125-3.1016-0.56641-6.207-0.70703-9.3086-0.10547-2.3633 0.027344-4.7266 0.003906-7.0938-0.015624-1.582-0.17969-3.1719-0.18359-4.7578-0.011719-3.7266 0.066406-7.4492 0.046875-11.172-0.015625-2.8047-0.10938-5.6172-0.20312-8.4258-0.074219-2.3281-0.26953-4.6602-0.23438-6.9805 0.14453-0.65234 0.55078-1.2148 1.125-1.5547 1.4609-0.92578 3.1797-1.3711 4.9102-1.2617 0.58984 0.015625 1.1758 0.003907 1.9453 0.003907h-0.003906c0.0625-2.5195-0.023437-5.0391-0.26172-7.5469-0.28906-1.8086-1.207-3.4609-2.5938-4.6641-3.2852-2.8867-6.5898-5.75-9.9219-8.582-0.67578-0.57422-1.3008-1.1289-1.0078-2.0664 0.30469-0.96094 0.74219-1.832 1.9609-1.8945h0.003906c0.28125-0.039062 0.55859-0.11328 0.82422-0.21484 1.3828 1.5 2.7266 3.0781 4.1953 4.5234 2.4727 2.4375 5.0586 4.7578 7.5312 7.1953 1.4258 1.1836 2.1523 3.0117 1.9297 4.8477-0.12891 2.0234-0.125 4.0508 0.015626 6.0703 0.003906 0.91406-0.046876 1.8281-0.078126 2.8047zm9.6836 41.062c0.11719 0.3125 0.28125 0.60547 0.48438 0.875 1.2031 1.1484 1.8984 2.7344 1.9258 4.4023 0.03125 0.64844 0.066407 1.2969 0.10547 2.0508l0.74219-0.19531h0.003906c0.26172-0.12109 0.55078-0.17969 0.83984-0.16406 0.48438 0.125 0.91016 0.41016 1.2109 0.80859 0.375 1.0898 0.64062 2.2148 0.80078 3.3555 0.32031 2.1953 0.66016 2.9844-1.9531 3.6523-0.31641 0.082031-0.60547 0.23828-0.91797 0.34375-1.7656 0.58984-3.5312 1.1758-5.3789 1.7891l0.003906 0.003907c-0.17578-0.58984-0.39453-1.1641-0.65625-1.7188-0.16797-0.29297-0.45312-0.5-0.78516-0.57031-1.6914 0.11328-3.375 0.30469-5.0586 0.47266l-0.55078 1.7734-0.35937-0.10938c-0.03125-0.90234-0.17969-1.8008-0.43359-2.668-0.98047-2.3047-2.0273-4.5977-3.2266-6.8086-1.0664-1.9648-2.3438-3.8359-4.6328-4.6172v0.003906c-0.29297-0.039062-0.58984-0.019531-0.875 0.054688 0.089843 0.25 0.24219 0.47266 0.4375 0.65234 2.7773 1.1406 4.3867 3.4883 5.75 5.9062l0.003906-0.003906c0.80859 1.7578 1.4766 3.5703 2 5.4336 0.52344 1.418 0.55078 1.418-0.85938 1.7539v-0.003906c-0.25 0.054688-0.50391 0.085938-0.76172 0.089844-1.8008 0.042968-3.582-0.36328-5.1875-1.1797 0.082031 0.34375 0.30469 0.63672 0.61719 0.80469 1.4922 0.28516 2.9961 0.54688 4.5 0.69922 1.4688 0.14453 2.9453 0.15234 4.4141 0.20703 2.0742 0.078125 4.1602 0.27344 6.2188 0.17969 2.9219-0.12891 5.8242-0.47656 9.0273-0.75391-0.22266-4.2695-0.44141-8.4531-0.66797-12.641h0.003906c-0.03125-0.10547-0.082031-0.21094-0.14844-0.30078 0.36328-2.3711-0.66797-4.5977-1.1172-6.9883h0.003906c-1.7148 0.34766-3.2695 1.25-4.4141 2.5703-0.34766 0.31641-0.72266 0.60156-1.1211 0.85156 0.10547-0.92187 0.21094-1.8398 0.3125-2.7344-0.98438-0.085938-1.9688-0.17188-2.957-0.25781l-0.011718-0.33984-1.5 0.97656zm4.5508-6.4609c1.0586-0.72266 1.418-2.1172 0.84766-3.2617-0.16406-0.56641-0.25781-1.1484-0.28125-1.7383-0.070313-0.40234-0.1875-0.80078-0.23047-0.97656-0.39062 0.40234-0.78125 0.80469-1.3477 1.3867 0.10547 0.42188 0.30078 1.2031 0.49219 1.9883 0.21094 0.86719 0.88281 1.6602 0.53516 2.6133-0.98437 0.55469-0.89453-0.29688-1.0117-0.81641-0.27734-1.2344-0.53906-2.4688-0.78906-3.707v0.003906c-0.015625-0.34375-0.1875-0.66406-0.46484-0.86328-0.27734-0.20312-0.63281-0.26953-0.96484-0.17969-1.3555 0.19141-2.7148 0.35547-4.1094 0.53906 0.3125 2.4844 0.60547 4.7969 0.88672 7.1055 0.003906 0.25 0.12109 0.48047 0.32422 0.625 0.19922 0.14844 0.45703 0.19141 0.69141 0.11719 2.1445-0.070313 4.1406-1.1133 5.4219-2.8359zm-18.375-10.484c-0.35938 0.29688-0.75781 0.54688-1.1836 0.73828-1.2344 0.38281-1.3594 1.3672-1.4844 2.668 0.90234-0.54688 1.6445-0.96875 2.3438-1.4453h0.003906c0.15625-0.16406 0.24219-0.37891 0.24219-0.60547 0.050782-0.45312 0.042969-0.91016 0.0625-1.3672 1.9492-3.3281 3.9219-6.6406 5.8398-9.9883 1.0859-1.8945 2.082-3.8477 3.1445-5.8242v0.003907c-0.15234-0.066407-0.31641-0.11719-0.48047-0.15625-0.25781-0.019531-0.51953-0.019531-0.77734 0.007812-4.1367 0.61719-8.1562-0.60547-12.203-1.3906v0.003906c-0.28906-0.14844-0.53906-0.35937-0.73438-0.61328 0.28516-0.14062 0.59375-0.22266 0.91406-0.23828 3.6562 0.6875 7.2812 1.6992 11.016 1.4336 1.4062-0.10156 3.1211 0.51953 3.3906-2.0586l0.5 1.0859c0.35547-0.69531 0.75391-0.64844 1.2773-0.082032 0.28125 0.42578 0.69141 0.74609 1.1719 0.91797 1.9961-0.085937 3.9844-0.28125 5.9609-0.58203 0.61719-0.097656 1.6445-0.074219 1.5742-1.2188-0.058593-0.94922-0.10156-1.8945-0.13672-2.6133-2.5703 0.12109-5.2656 0.26953-7.9648 0.37109-1.8477 0.070313-3.6953 0.125-5.5508 0.10156-3.7734-0.054688-7.5625 0.10938-11.312-0.78125-1.0859-0.25781-1.1836 0.12891-1.1289 1.0117 0.14063 2.2422 0.28906 4.4883 0.3125 6.7266 0.035157 3.3984-0.035156 6.7891-0.054687 10.184-0.003906 0.41016 0.039063 0.82031 0.0625 1.2344 0.40234-1.1172 0.47266-2.2695 0.84766-3.2969 0.42969-1.1758 0.85938-2.6445 1.793-3.25 1.0234-0.66406 1.2578-1.7109 2-2.4414l-0.003906-0.003907c0.10938-0.17188 0.27344-0.30859 0.46094-0.38672 1.1523 0.26953 1.4297-0.76953 2.0625-1.2656 0.39062-0.30469 0.77734-0.61328 1.1641-0.92188 0.027344 0.48438 0.050781 0.96484 0.082031 1.4492 0.003906 0.066407 0.054687 0.13281 0.03125 0.074219 0.37891 0.13672 0.72656 0.35156 1.0156 0.63672 0.023438 1.1289-0.035156 2.2578-0.17188 3.3789-0.15625 0.26562-0.38672 0.48828-0.66016 0.63672l-0.8125-0.89062c-0.5 0.64844-0.98047 1.2773-1.6289 2.1211h1.5547l0.17188 0.23047c-0.87891 0.83203-2.7578 0.85547-2.3984 2.6836l1.0352-0.058594 0.125 0.32031h0.003906c-0.64062 0.33984-1.2422 0.75391-1.793 1.2305-0.42969 0.5625-0.79688 1.168-1.0938 1.8086 0.58203 0.17578 0.99609 0.30078 1.4102 0.42188zm20.176 7.8672 0.29688-0.023438-0.070313-24.59c-2.2852 0.31641-4.4727 0.61719-6.7852 0.93359 0.41797 0.51172 0.87109 1.0078 1.25 1.5508v0.003907c0.50391 0.64844 0.92969 1.3516 1.2734 2.0977 0.78125 1.9727 0.67969 4.1797-0.27734 6.0703-0.98438 2.1719-1.875 4.3125-4.0195 5.5859-0.40625 0.24219-0.78906 0.52734-1.2188 0.81641 0.54687-0.16016 1.0312-0.29688 1.5156-0.4375l0.22656 0.34375c-0.49219 0.47266-0.98828 0.94531-1.5469 1.4805 1.0352 0.050781 1.7734-1.2305 2.9531-0.32031-1.1133 0.84766-2.1289 1.6875-3.2227 2.4102v-0.003906c-0.39453 0.074218-0.79688 0.042968-1.1758-0.082032l-0.007813-0.33203 1.1992-0.69531-0.089844-0.15234-2.6875 0.72656c0.84375 0.50391 1.4336 1.1289 1.9922 1.1328h-0.003907c0.89062-0.027344 1.7617-0.26172 2.5391-0.69141 1.9258-1.0156 4.0977-0.9375 6.1758-1.2812 0.63281-0.10547 0.81641 0.30859 0.90234 0.87109 0.23438 1.5352 0.51562 3.0586 0.78125 4.5898zm-17.574 6.7383c2.8086-0.019531 5.6211-0.0625 7.9805-1.7422h-0.003907c0.22656-0.125 0.38672-0.33594 0.44922-0.58594-0.070312-1.1094-0.19141-2.2188-0.34766-3.3203-0.078125-0.26953-0.24219-0.5-0.46875-0.66016-0.47656-0.36328-1.0039-0.65625-1.4922-1-1.6172-1.1328-3.2461-2.1367-5.2578-1.2891v-0.003906c-0.28516 0.085937-0.58203 0.11328-0.875 0.078124-1.3242-0.10547-2.5547 0.67969-3.0195 1.9258-0.46094 1.2461-0.83594 2.5234-1.1172 3.8242-0.16406 0.63672-0.27344 1.2891-0.32422 1.9453-0.085938 0.30078 0 0.62109 0.22266 0.83984s0.54297 0.30078 0.83984 0.21094c1.1328-0.10938 2.2773-0.15234 3.4141-0.22266zm1.0508 1.0938-0.078125-0.27344c-0.57031 0.050782-1.1367 0.14063-1.707 0.14063-1.0273 0.035156-2.0586-0.003907-3.082-0.10938-0.47266-0.023437-0.91406-0.25781-1.1914-0.64062-0.28125-0.38281-0.375-0.87109-0.25391-1.3281 0.54297-2.6484 0.59375-5.4922 2.5977-7.6094l-0.003907-0.003907c-0.52344-0.40234-1.082-0.76172-1.6641-1.0703-0.40625-0.17578-0.85938-0.19141-1.2773-0.046875-0.73828 0.33594-1.1328 0.14453-1.3008-0.61719-0.29297-1.3398-0.55078-2.6875-0.84375-4.1172 0.039062 6.2148 0.078125 12.383 0.11328 18.188l4.5195 2.5469c1.1289-1.8125 1.7812-4.1406 4.1719-5.0625zm17.191 18.637c-7.9922 0.99219-16.082 0.95312-24.066-0.11328-0.042969 0.4375 0.10938 0.87109 0.41406 1.1875 0.30078 0.32031 0.73047 0.48828 1.168 0.46484 2.8047 0.26172 5.6094 0.71094 8.4062 0.8125 2.8867 0.10547 5.7734-0.078125 8.6523-0.20312 1.4297-0.0625 2.8477-0.25781 4.2617-0.44141 0.89453-0.11719 1.5664-0.48047 1.1641-1.707zm-13.043-70.344c1.5234 0.24219 1.5625 0.17188 1.5508-1.375-0.015625-2.6953-0.007812-5.3906 0.058594-8.082 0.042968-1.6914 0.22656-3.3711 0.30859-5.0625 0.10547-2.1914 0.17187-4.3867 0.25781-6.5742-1.4922-0.23438-1.543-0.11328-1.5508 1.1875-0.015625 2.4219 0.22656 4.8789-0.49219 7.2188-0.078125 0.32031-0.11719 0.64453-0.11719 0.97266-0.10938 2.0195-0.28125 4.0352-0.28906 6.0586-0.003906 1.875 0.17578 3.7617 0.27344 5.6562zm8.5547 61.172c-0.41797 1.9336-1.4805 3.6641-3.0156 4.9062-0.75 0.65625-0.027343 1.375 0.23438 1.9922 0.35547 0.22656 0.79297 0.28516 1.1953 0.16406 1.3281-0.46484 2.625-1.0039 3.8906-1.6172 0.37109-0.23047 0.60547-0.62891 0.61719-1.0664-0.20703-1.5664-0.55078-3.1211-0.84766-4.6914zm-15.102-62.664c-3.625-3.375-7.1953-6.6953-10.664-9.9258l-1.2344 1.0977c0.97266 0.81641 1.9414 1.5977 2.875 2.4141 2.4297 2.125 4.8867 4.2227 7.2344 6.4375 0.19531 0.30859 0.53516 0.49219 0.90234 0.48828 0.36328-0.003906 0.70312-0.19922 0.88672-0.51172zm0.92969 4.9258c0.55469 0.97266 0.38281 10.152-0.40625 10.59-0.20312-1.207-0.87109-1.8906-2.1016-1.5586-0.87891 0.23828-2.0742-0.25391-2.707 1.125 2.1406 0.21875 4.1445 0.42188 6.2188 0.63281-0.011719-3.9102-0.023438-7.5352-0.035157-11.371-0.45703 0.27344-0.71484 0.42969-0.96875 0.58203zm5.543 0.80859c0.015625 3.0078 0.019531 5.9453 0.070312 8.8867 0.085938 0.35156 0.23828 0.6875 0.44922 0.98438 0.23828-0.29297 0.41797-0.62891 0.52344-0.98828 0.10938-1.5312 0.13672-3.0703 0.18359-4.6094 0.042969-1.4219 0.074219-2.8398 0.11328-4.293-0.33203-0.015625-0.51953-0.03125-0.70312-0.03125-0.14453 0-0.28906 0.023437-0.63672 0.050781zm2.207 9.8867c3.4414 0.039063 6.8281 0.12109 10.102-0.80078-0.79297-0.18359-1.6094-0.26172-2.4219-0.22656-2.2812 0-4.5625-0.007812-6.8398 0-0.55469 0-1.0938 0.046875-0.83984 1.0273zm-13.906 25.016c1.3594-1.707 1.6133-7.0508 0.41406-8.8398-0.91406 2.8984-0.69141 5.8125-0.41406 8.8398zm11.879-13.316c0.88281-0.36328 1.6562-0.63281 2.3789-0.99219h0.003906c0.96875-0.45312 1.9062-0.97656 2.8047-1.5625 0.21875-0.33984 0.34375-0.73438 0.36719-1.1406-0.36328-0.17969-0.76172-0.28516-1.168-0.30078-0.60156 0.11328-1.1641 0.37891-1.6289 0.77734-0.94531 0.95703-1.7617 2.0391-2.7578 3.2188zm-0.57422 33.949c-1.832-0.10547-2.8516 0.44141-3.1289 1.7109-0.16016 0.72266-0.80859 1.6758 0.60156 2.4258 0.8125-1.3281 1.6094-2.6328 2.5273-4.1367zm-5.0156-5.6445-0.20703-0.09375c-0.54297 0.69922-1.0117 1.457-1.3945 2.2617-0.32422 0.73047-0.38281 1.5547-0.16016 2.3242 0.71875 1.3789 1.5352 2.707 2.4375 3.9766 0.25-0.89453 0.45312-1.6211 0.66016-2.3633v-0.003906c-0.23828-0.125-0.50391-0.19922-0.77734-0.21094-1.3867 0.44531-1.4492-0.61328-1.6328-1.457-0.09375-0.42969-0.085937-0.87891 0.027344-1.3086 0.30469-1.0547 0.69141-2.0859 1.0469-3.125zm4.4336 11.613 0.3125 0.125-0.003907 0.003907c0.36719-0.24219 0.67188-0.56641 0.89062-0.94141 0.29297-1.1562 0.50781-2.3281 0.64453-3.5117-0.054688-0.36328-0.18359-0.71094-0.38281-1.0195-0.30859 0.25781-0.57031 0.57031-0.76562 0.92188-0.28906 0.89453-0.51172 1.8125-0.66797 2.7422-0.054687 0.55859-0.066406 1.1211-0.027343 1.6797zm0.44141-37.66-0.27734 0.28516c1.3789 1.2852 2.7539 2.5742 4.1797 3.9023l-0.003907 0.003906c0.33203-0.49219 0.42578-1.1094 0.25-1.6758-0.17578-0.56641-0.60156-1.0234-1.1562-1.2383-0.99219-0.44922-1.9961-0.85156-2.9961-1.2734zm-7.4023-2.418c-0.79297 1.8242-0.91016 3.875-0.33203 5.7773 0.84766-2.2734 1.6953-4.5469 2.543-6.8203l-0.39453-0.15625-1.4531 4.0859-0.21484-0.066406zm10.207 32.855c0.58203 0.25 1.0977 0.44141 1.5898 0.68359 0.375 0.26953 0.85156 0.34375 1.2891 0.20703 0.44141-0.13672 0.78906-0.46875 0.94922-0.89844 0.1875-0.22656 0.22656-0.53906 0.09375-0.80078-0.12891-0.26172-0.39844-0.42578-0.69141-0.41016-1.2305-0.17188-2.4609-0.18359-3.2305 1.2188zm-1.6562-31.531-0.085937 0.36719c1.1758 0.63672 2.332 1.332 3.5469 1.8711v0.003906c0.44922 0.16016 0.94922 0.11328 1.3555-0.13672 0.12109-0.32422 0.078124-0.67969-0.10547-0.96875-0.1875-0.28906-0.49609-0.47266-0.83984-0.49609-1.2852-0.23828-2.582-0.42969-3.8711-0.63672zm3.6953 36.254-0.49609 1.9141c2.4219-1.0781 3.7656-3.6953 3.2344-6.2891-0.14453 0.22266-0.32812 0.42188-0.53906 0.58203-0.71094 0.36719-0.56641 0.84375-0.42578 1.5508 0.078125 0.76172-0.054687 1.5273-0.38672 2.2148-0.45312 0.10547-0.92578 0.11719-1.3867 0.027343zm-5.1055-4.6953-0.058594-0.51953c-1.3984-0.14453-2.793-0.28906-4.293-0.44141l0.37109 1.9297c1.3906-0.33984 2.6875-0.65234 3.9805-0.96875zm6.2031-31.273c0.25391 0.33203 0.6875 0.90234 1.1172 1.4727 0.55469-1.3477 0.39062-4.5469-0.30078-5.0391l-0.78516 0.51172c1.832 1.2969-0.61719 1.7617-0.03125 3.0547zm-15.066 0.50391h0.003906c-0.78516 0.49609-1.082 1.4961-0.69531 2.3438 0.35547 1.3789 0.59766 2.7852 0.71484 4.2031 1.2461-2.1953-0.015625-4.2383-0.019531-6.5469zm-0.72656 40.152 4.5781 0.95313c-0.38281-1.9375-2.5195-2.5859-4.5781-0.95313zm11.422-33.414c-0.10938-1.9883-0.92188-3.8789-2.2969-5.3242 0.37891 1.8047 0.26953 3.7852 2.2969 5.3242zm-7.6992 30.371-0.17188-0.40234c-1.5898-0.78906-2.4414-0.32812-3.9414 2.3477zm7.0508-23.656c0.0625-0.92578-0.57422-1.9453-1.293-1.8242-1.0156 0.17188-1.9961 0.49609-2.9922 0.75391l-0.023437 0.23828c1.4375 0.27344 2.8711 0.55078 4.3047 0.83203zm2.0664 18.508c1.2812 2.3008 1.5273 2.5273 2.8438 2.6367 0.73438-1.4688 0.23438-1.9062-2.8477-2.6406zm-1.0352-2.5469 0.46484 0.28516c0.62891-0.74609 1.2109-1.5273 1.75-2.3398 0.023438-0.40234-0.0625-0.80469-0.24219-1.1641-0.36719 0.085938-0.71094 0.26562-0.98828 0.52344-0.375 0.87891-0.70312 1.7773-0.98438 2.6914zm0.91016 7.4844c1.5586-0.97266 1.3672-1.9688-0.55469-3.9414zm-0.39844-30.285c0.83594-0.48828 1.4258-0.83594 2.0156-1.1797l-2.8477-1.9453c0.31641 1.1914 0.54297 2.0312 0.83203 3.125zm0.16406 3.3672c0.046875-0.41016-0.19141-0.66797-0.91797-0.46094-0.80469 0.22266-1.6484 0.32812-2.4375 0.58203-0.64453 0.24609-1.2734 0.52734-1.8867 0.84766l0.15234 0.35547c1.6133-0.42188 3.2266-0.83984 5.0898-1.3242zm-6.5078 17.055c0.53906 1.3398 1.8594 2.1953 3.3047 2.1445-0.67188-1.2266-1.9141-2.0312-3.3047-2.1445zm-4.8242 8.4414 2.2891-0.22266c-0.52734-0.80078-1.0859-1.6523-1.7305-2.6328-0.21875 1.1211-0.39844 2.0312-0.55859 2.8594zm21.875-17.32-0.27344-0.082031c-0.39844 0.57812-0.79297 1.1562-1.0547 1.5352 0.5 1.0469 0.90234 1.8828 1.3555 2.8242-0.007812-1.4492-0.019531-2.8633-0.027343-4.2734zm-17.375 7.5039c1.9375-1.6367 4.4688-1.2305 6.8672-1.5859-2.7266-0.87109-4.8906 0.003906-6.8672 1.5859zm2.0469-18.262 0.33594 0.050782v0.003906c0.72656-1.4766 0.67969-3.2109-0.125-4.6445zm1.4023 18.738c0.48828 1.168 0.91406 2.1836 1.4062 3.3672 0.91016-1.5273 0.35937-2.8164-1.4062-3.3633zm0.78906-39.836c-0.80078-1.457-1.9648-0.88281-2.9688-1.2734l0.066406 1.2734zm-3.2852 50.988c0.58594 0.37109 1.1758 0.74219 1.875 1.1836l0.31641-2.7109zm4.3984-41.875c2.4961-1.918 2.7578-2.3633 2.043-3.5234-0.71484 1.2305-1.3789 2.375-2.043 3.5234zm-5.4297 17.012-3.8633 0.17578c0.53125 0.5 1.2422 0.76172 1.9688 0.73047 0.72656-0.035156 1.4102-0.35938 1.8945-0.90625zm5.9492 14.59 1.0586-1.9336c-0.99609 0.070312-1.7578 0.125-2.5469 0.17969 0.51172 0.60937 0.94141 1.1172 1.4883 1.7539zm3.4531-22.195c0.52734-0.85547 0.98437-1.5938 1.4844-2.3984l-1.7461-0.12109c0.085937 0.85156 0.16016 1.5742 0.25781 2.5195zm-0.42578 23.777c0.70312 0.078125 1.3359 0.14844 2.2188 0.24609-0.66406-0.875-1.1914-1.5703-1.6484-2.1758-0.17188 0.57812-0.35156 1.1875-0.57031 1.9297zm-9.7148-18.426-1.3047-0.125 0.38281 0.41016-1.5078 1.2812c1.1133 0.37891 1.5312-0.75391 2.4297-1.5703zm-5.3711 26.066c0.054687 0.007812 0.10938 0 0.16016-0.011719 0.73438-1.0469 1.0977-2.3086 1.0352-3.582-1.293 1.0586-0.71094 2.4844-1.1953 3.5938zm12.355 0.29297-1.1523 2.1367 2.2266-0.72266c-0.41406-0.54688-0.72656-0.95703-1.0742-1.4141zm5.8633-14.004 0.26172 0.36328 3.0586-2.0977-0.25781-0.35156zm-2.4805-24.562-0.19141-0.48828-2.5 0.85547 0.10547 0.29297c0.83594-0.30078 2.0352 0.49219 2.5859-0.66016zm-9.9609 10.09 0.30469 0.11719c0.48047-1.2422 0.95703-2.4805 1.4375-3.7227l-0.30078-0.13281c-0.40234 0.90625-0.82031 1.8086-1.1992 2.7266h-0.003906c-0.10938 0.32812-0.1875 0.66797-0.23828 1.0117zm3.0508 31.023h-0.003906c2.1484 0.65625 4.4805 0.27734 6.3086-1.0273-1.8945 1.125-4.1484 1.4922-6.3086 1.0273zm-3.9023-64.633 0.39844 0.24219c0.35156-0.4375 0.69922-0.87891 1.0508-1.3164l-1.7891-0.14062zm4.3438 52.707-0.42578-1.6367-1.8945 0.77734c0.94922 0.35156 1.5586 0.57812 2.3203 0.85937zm0.33203-19.371c0.64844-0.21875 1.0938-0.37109 1.6289-0.55078l-1.3438-1.5312c-0.10156 0.73047-0.18359 1.3359-0.28516 2.082zm2.7383 5.8281c-0.09375 1.1641 0.027344 1.3516 1.207 1.8984-0.039063-0.875 0.10547-1.8086-1.207-1.8984zm3.6445 27.277 0.16406-0.40234-0.62109-1.4102c-0.95312 0.21875-0.94531 0.76953-0.52344 1.332v0.003906c0.28906 0.22656 0.62109 0.39062 0.98047 0.47656zm-15.984-10.664 0.082031 1.5352 1.5273 0.1875 0.21875-0.28516c-0.57812-0.45703-1.1602-0.91406-1.8281-1.4375zm6.5469-31.258-0.082032-1.5469-0.33203-0.12891c-0.26562 0.51562-0.53125 1.0312-0.86719 1.6758zm12.059-3.1211-0.375-0.007813 0.65234 4.2578 0.23047-0.011719c-0.16797-1.4141-0.33984-2.8281-0.50781-4.2422zm-14.852 42.551 1.7266 1.1016c-0.24609-0.78125-0.43359-1.3789-0.66406-2.1172zm1.4805-27c1.3242 0.30859 1.7578-0.16016 1.6406-1.5781zm10.793-18.41-1.1406-1.4844c-0.085938 1.6797-0.003907 1.7734 1.1406 1.4844zm0.078126 32.555-0.21875 0.16016 2.3984 3.2617 0.22266-0.15625zm-3.5859-17.328-0.13281-0.32422c-1.0938 0.39062-2.1836 0.77734-3.2773 1.168l0.082031 0.21484c1.1094-0.35547 2.2188-0.70703 3.3281-1.0625zm-7.5586-1.2266c-0.28125 0.63672-0.54688 1.2422-0.88281 2.0039l0.98828 0.066406zm15.332 5.2266-0.11328-0.39844-2.6992 0.20703 0.019531 0.19531h2.7891zm-14.902 16.629 1.6172 0.23047 0.125-0.24219-1.1445-0.94141zm-7.0898 0.22656 0.11328 2.1367c-0.042969-0.63281 1.1602-1.2109-0.10938-2.1328zm7.3633-56.855-0.73047-0.87891-0.92187 0.90625 0.11328 0.23828c0.43359-0.074219 0.86719-0.14844 1.543-0.26172z"/>
  <path d="m62.301 84.551c-0.46875-0.25-0.75-0.5-0.23047-0.96875 0.89453-0.80859 1.7266-1.6836 2.6406-2.4688v-0.003906c0.30859-0.12109 0.64062-0.17188 0.97266-0.14062-0.039063 0.26172-0.13281 0.51172-0.27734 0.73438-1.0156 0.96875-2.0664 1.9023-3.1055 2.8477z"/>
 </g>
</svg>
